<mxfile host="app.diagrams.net" agent="Mozilla/5.0 (Windows NT 10.0; Win64; x64) AppleWebKit/537.36 (KHTML, like Gecko) Chrome/134.0.0.0 Safari/537.36" version="26.2.4">
  <diagram name="第 1 页" id="CKXS9Zwinr7VOqpuXOYK">
    <mxGraphModel dx="1428" dy="751" grid="1" gridSize="10" guides="1" tooltips="1" connect="1" arrows="1" fold="1" page="1" pageScale="1" pageWidth="827" pageHeight="1169" math="0" shadow="0">
      <root>
        <mxCell id="0" />
        <mxCell id="1" parent="0" />
        <mxCell id="YFMU6Oer8rVLxQnqSTEc-1" value="用户态" style="rounded=0;whiteSpace=wrap;html=1;align=left;verticalAlign=top;fillColor=#ffe6cc;strokeColor=#d79b00;" vertex="1" parent="1">
          <mxGeometry x="220" y="90" width="400" height="130" as="geometry" />
        </mxCell>
        <mxCell id="YFMU6Oer8rVLxQnqSTEc-2" value="应用程序&lt;div&gt;User Buffer&lt;/div&gt;" style="ellipse;whiteSpace=wrap;html=1;fillColor=#ffe6cc;strokeColor=#d79b00;" vertex="1" parent="1">
          <mxGeometry x="354" y="120" width="120" height="80" as="geometry" />
        </mxCell>
        <mxCell id="YFMU6Oer8rVLxQnqSTEc-3" value="内核态" style="rounded=0;whiteSpace=wrap;html=1;align=left;verticalAlign=top;fillColor=#f8cecc;strokeColor=#b85450;" vertex="1" parent="1">
          <mxGeometry x="220" y="320" width="400" height="140" as="geometry" />
        </mxCell>
        <mxCell id="YFMU6Oer8rVLxQnqSTEc-4" value="Kernal Buffer" style="ellipse;whiteSpace=wrap;html=1;fillColor=light-dark(#eb7363, #198cc4);fontColor=#ffffff;strokeColor=none;" vertex="1" parent="1">
          <mxGeometry x="250" y="350" width="130" height="90" as="geometry" />
        </mxCell>
        <mxCell id="YFMU6Oer8rVLxQnqSTEc-5" value="Socket Buffer" style="ellipse;whiteSpace=wrap;html=1;fillColor=#e51400;fontColor=#ffffff;strokeColor=#B20000;" vertex="1" parent="1">
          <mxGeometry x="440" y="350" width="130" height="90" as="geometry" />
        </mxCell>
        <mxCell id="YFMU6Oer8rVLxQnqSTEc-6" value="磁盘" style="rounded=0;whiteSpace=wrap;html=1;fillColor=light-dark(#eb7363, #198cc4);fontColor=light-dark(#fcfcfc, #ededed);" vertex="1" parent="1">
          <mxGeometry x="255" y="540" width="120" height="60" as="geometry" />
        </mxCell>
        <mxCell id="YFMU6Oer8rVLxQnqSTEc-7" value="网卡Socket" style="rounded=0;whiteSpace=wrap;html=1;fillColor=#e51400;fontColor=#ffffff;strokeColor=#B20000;" vertex="1" parent="1">
          <mxGeometry x="450" y="540" width="120" height="55" as="geometry" />
        </mxCell>
      </root>
    </mxGraphModel>
  </diagram>
</mxfile>
